<?xml version="1.0" encoding="utf-8"?>
<!-- Generator: Adobe Illustrator 19.0.0, SVG Export Plug-In . SVG Version: 6.00 Build 0)  -->
<svg version="1.1" id="Capa_1" xmlns="http://www.w3.org/2000/svg" xmlns:xlink="http://www.w3.org/1999/xlink" x="0px" y="0px"
	 viewBox="0 0 114.2 25.4" style="enable-background:new 0 0 114.2 25.4;" xml:space="preserve">
<style type="text/css">
	.st0{fill:#FFFFFF;}
	.st1{fill:#B7BC00;}
	.st2{fill:#C22821;}
	.st3{fill:#4DA6DE;}
	.st4{fill:#8A4975;}
	.st5{fill:none;stroke:#FFFFFF;stroke-width:0.3;stroke-linecap:round;stroke-miterlimit:10;}
</style>
<g>
	<path class="st0" d="M23.7,12.9c0,5.5-4.4,9.9-9.9,9.9c-5.5,0-9.9-4.4-9.9-9.9C3.8,7.4,8.3,3,13.7,3C19.2,3,23.7,7.4,23.7,12.9"/>
	<g>
		<path class="st1" d="M23.1,12.9c0,5.2-4.2,9.4-9.4,9.4c-5.2,0-9.4-4.2-9.4-9.4c0-5.2,4.2-9.4,9.4-9.4C18.9,3.5,23.1,7.7,23.1,12.9
			"/>
		<path class="st2" d="M4.3,12.9c0,0.7,0.1,1.4,0.2,2h18.4c0.1-0.6,0.2-1.3,0.2-2c0-0.7-0.1-1.4-0.2-2H4.6
			C4.4,11.6,4.3,12.2,4.3,12.9"/>
		<path class="st3" d="M11.7,22.1c0.6,0.1,1.3,0.2,2,0.2c0.7,0,1.4-0.1,2-0.2V3.7c-0.6-0.1-1.3-0.2-2-0.2c-0.7,0-1.4,0.1-2,0.2V22.1
			z"/>
		<rect x="11.7" y="10.9" class="st4" width="4" height="4"/>
	</g>
	<path class="st0" d="M35.2,11.2h-0.4c-0.2-1.4-1.1-1.9-2.3-1.9c-2.3,0-3.1,2-3.1,4c0,1.5,0.5,3.9,3,3.9c1.6,0,2.2-0.9,2.6-2.2h0.4
		l-0.2,2c-0.6,0.3-1.7,0.6-2.7,0.6c-1.4,0-2.6-0.3-3.3-1c-0.7-0.7-1.2-1.9-1.2-3.3c0-1.4,0.4-2.4,1.1-3.2c0.7-0.8,1.9-1.3,3.4-1.3
		c1.1,0,2,0.2,2.6,0.5V11.2z"/>
	<path class="st0" d="M42.6,9.1v2h-0.4c-0.2-1.3-0.5-1.6-1.8-1.6h-1.2c-0.4,0-0.5,0-0.5,0.4v2.9h1.7c1,0,1.1-0.3,1.2-1H42v2.6h-0.4
		c-0.1-0.8-0.2-1.1-1.2-1.1h-1.7V16c0,0.6,0,0.8,0.3,0.9c0.3,0.1,0.7,0.1,1.3,0.1c1.5,0,2.1-0.2,2.4-1.7h0.4l-0.1,2.1h-6.5v-0.4
		c1.1-0.1,1.1-0.1,1.1-0.8v-6.2c0-0.7,0-0.7-1.1-0.8V9.1H42.6z"/>
	<path class="st0" d="M52.7,9.1v0.4c-1.1,0.1-1.1,0.1-1.1,0.8v4.2c0,0.7-0.1,1.4-0.3,1.8c-0.6,1.2-1.8,1.5-3,1.5
		c-1.2,0-2.5-0.3-3-1.5c-0.2-0.4-0.3-1.1-0.3-1.8v-4.2c0-0.7,0-0.7-1.1-0.8V9.1h3.4v0.4c-1.1,0.1-1.1,0.1-1.1,0.8v3.9
		c0,1.2,0.2,1.9,0.5,2.4c0.4,0.5,0.9,0.7,1.6,0.7c0.7,0,1.2-0.2,1.6-0.7c0.4-0.5,0.5-1.2,0.5-2.4v-3.9c0-0.7,0-0.7-1.1-0.8V9.1H52.7
		z"/>
	<g>
		<path class="st0" d="M59.8,11.4l0-0.2l0.3,0c0.1,0,0.1,0,0.2-0.1c0,0,0.1-0.1,0.1-0.2l0.7-3.1c0,0,0-0.1,0-0.1
			c0-0.1,0-0.2-0.1-0.2l-0.3,0l0-0.2h1.6l0,0.2l-0.3,0c-0.1,0-0.1,0-0.2,0.1s-0.1,0.1-0.1,0.2L61,10.9c0,0.1,0,0.1,0,0.1
			c0,0.1,0,0.2,0.1,0.2l0.3,0l0,0.2H59.8z"/>
		<path class="st0" d="M62.1,11.5l0.6-2.4c0-0.1,0-0.1,0-0.2c0-0.1,0-0.1-0.1-0.1l-0.4,0l0-0.1l1.1-0.2l0,0L63,9.8h0
			c0.1-0.2,0.2-0.3,0.3-0.5c0.1-0.2,0.2-0.3,0.4-0.4c0.1-0.1,0.3-0.2,0.4-0.3c0.1-0.1,0.3-0.1,0.4-0.1c0.2,0,0.3,0,0.4,0.1
			C65,8.7,65,8.8,65,8.9c0,0.1,0,0.2-0.1,0.4l-0.5,1.5c0,0.1,0,0.1,0,0.2c0,0.1,0,0.1,0.1,0.1c0,0,0.1,0,0.1-0.1
			c0,0,0.1-0.1,0.1-0.2c0-0.1,0.1-0.1,0.1-0.2c0-0.1,0.1-0.1,0.1-0.2l0.1,0.1c-0.1,0.2-0.2,0.4-0.4,0.6c-0.2,0.2-0.3,0.2-0.6,0.2
			c-0.1,0-0.2,0-0.3-0.1c-0.1-0.1-0.1-0.1-0.1-0.2c0-0.1,0-0.2,0-0.2l0.5-1.7c0-0.1,0-0.1,0-0.2c0-0.2-0.1-0.2-0.2-0.2
			c-0.1,0-0.2,0-0.4,0.1c-0.1,0.1-0.2,0.2-0.4,0.3c-0.1,0.1-0.2,0.3-0.3,0.4S63.1,10,63,10.1c-0.1,0.2-0.1,0.4-0.2,0.5
			c-0.1,0.2-0.1,0.4-0.2,0.7L62.1,11.5z"/>
		<path class="st0" d="M67.5,8.6c0.1,0.1,0.2,0.2,0.2,0.3c0,0.1,0,0.1-0.1,0.2c-0.1,0-0.1,0.1-0.2,0.1c-0.1,0-0.1,0-0.2-0.1
			c-0.1-0.3-0.3-0.4-0.5-0.4c-0.1,0-0.2,0-0.3,0.1c-0.1,0.1-0.1,0.2-0.1,0.3c0,0.1,0,0.2,0.1,0.3s0.2,0.2,0.3,0.4
			c0.2,0.2,0.3,0.3,0.4,0.4c0.1,0.1,0.1,0.3,0.1,0.4c0,0.2-0.1,0.5-0.3,0.6c-0.2,0.2-0.4,0.3-0.7,0.3c-0.3,0-0.5-0.1-0.6-0.2
			c-0.2-0.1-0.2-0.2-0.2-0.4c0-0.1,0-0.2,0.1-0.2c0.1-0.1,0.1-0.1,0.2-0.1c0.1,0,0.2,0.1,0.2,0.2c0,0.2,0.1,0.3,0.2,0.4
			c0.1,0.1,0.2,0.1,0.3,0.1c0.1,0,0.2,0,0.3-0.1c0.1-0.1,0.1-0.2,0.1-0.3c0-0.1,0-0.2-0.1-0.4c-0.1-0.1-0.2-0.2-0.3-0.3
			c-0.2-0.1-0.3-0.3-0.4-0.4C66,9.6,66,9.5,66,9.3c0-0.2,0.1-0.5,0.3-0.6c0.2-0.2,0.4-0.2,0.7-0.2C67.1,8.5,67.3,8.5,67.5,8.6z"/>
		<path class="st0" d="M69.2,8.8l-0.5,2.1c0,0.1,0,0.1,0,0.1c0,0.1,0,0.1,0.1,0.1c0,0,0.1,0,0.1-0.1c0.1,0,0.1-0.1,0.2-0.2
			c0.1-0.1,0.1-0.1,0.2-0.2c0.1-0.1,0.1-0.1,0.1-0.2l0.1,0.1c-0.1,0.2-0.3,0.4-0.5,0.6c-0.2,0.2-0.4,0.2-0.6,0.2
			c-0.1,0-0.2,0-0.2-0.1c-0.1-0.1-0.1-0.1-0.1-0.2c0-0.1,0-0.2,0-0.2l0.5-2.1h-0.5l0.1-0.2h0.5l0.1-0.3l0.6-0.5l0.1,0l-0.2,0.7H70
			l-0.1,0.2H69.2z"/>
		<path class="st0" d="M71.2,8.5L71.2,8.5l-0.6,2.4c0,0.1,0,0.1,0,0.2c0,0.1,0,0.1,0.1,0.1c0,0,0.1,0,0.1-0.1S70.9,11,71,11
			c0-0.1,0.1-0.1,0.1-0.2c0-0.1,0.1-0.1,0.1-0.2l0.1,0.1c-0.1,0.2-0.2,0.4-0.4,0.6c-0.2,0.2-0.3,0.2-0.5,0.2c-0.1,0-0.2,0-0.3-0.1
			c-0.1-0.1-0.1-0.1-0.1-0.2c0-0.1,0-0.1,0-0.2l0.5-1.8c0-0.1,0-0.1,0-0.2c0-0.1-0.1-0.1-0.2-0.1l-0.3,0l0-0.1L71.2,8.5z M71.4,7.3
			c0.1,0.1,0.1,0.1,0.1,0.2c0,0.1,0,0.2-0.1,0.3c-0.1,0.1-0.2,0.1-0.3,0.1c-0.1,0-0.2,0-0.2-0.1c-0.1-0.1-0.1-0.1-0.1-0.2
			c0-0.1,0-0.2,0.1-0.3c0.1-0.1,0.2-0.1,0.3-0.1C71.3,7.2,71.4,7.3,71.4,7.3z"/>
		<path class="st0" d="M73,8.8l-0.5,2.1c0,0.1,0,0.1,0,0.1c0,0.1,0,0.1,0.1,0.1c0,0,0.1,0,0.1-0.1c0.1,0,0.1-0.1,0.2-0.2
			c0.1-0.1,0.1-0.1,0.2-0.2c0.1-0.1,0.1-0.1,0.1-0.2l0.1,0.1c-0.1,0.2-0.3,0.4-0.5,0.6c-0.2,0.2-0.4,0.2-0.6,0.2
			c-0.1,0-0.2,0-0.2-0.1c-0.1-0.1-0.1-0.1-0.1-0.2c0-0.1,0-0.2,0-0.2l0.5-2.1H72l0.1-0.2h0.5l0.1-0.3l0.6-0.5l0.1,0l-0.2,0.7h0.7
			l-0.1,0.2H73z"/>
		<path class="st0" d="M76.9,8.5l-0.6,2.4c0,0.1,0,0.1,0,0.2c0,0.1,0,0.1,0.1,0.1c0,0,0.1,0,0.1-0.1c0,0,0.1-0.1,0.1-0.2
			c0-0.1,0.1-0.1,0.1-0.2c0-0.1,0.1-0.1,0.1-0.2l0.1,0.1c-0.1,0.2-0.3,0.4-0.4,0.6c-0.2,0.2-0.4,0.2-0.6,0.2c-0.2,0-0.3-0.1-0.3-0.3
			c0-0.1,0-0.2,0-0.3l0.2-0.7h0c-0.1,0.2-0.2,0.3-0.3,0.5c-0.1,0.2-0.2,0.3-0.4,0.4c-0.1,0.1-0.3,0.2-0.4,0.3
			c-0.1,0.1-0.3,0.1-0.4,0.1c-0.2,0-0.3,0-0.3-0.1C74,11.3,74,11.2,74,11c0-0.1,0-0.2,0.1-0.4l0.4-1.5c0-0.1,0-0.1,0-0.2
			c0-0.1,0-0.1-0.1-0.1l-0.4,0l0-0.1l1.1-0.2l0,0l-0.6,2.2c0,0.1,0,0.2,0,0.3c0,0.2,0.1,0.2,0.2,0.2c0.1,0,0.2,0,0.4-0.1
			c0.1-0.1,0.2-0.2,0.3-0.3c0.1-0.1,0.2-0.3,0.3-0.4c0.1-0.2,0.2-0.3,0.2-0.5c0.1-0.2,0.1-0.3,0.2-0.5c0.1-0.2,0.1-0.4,0.2-0.8
			L76.9,8.5z"/>
		<path class="st0" d="M78.6,8.8l-0.5,2.1c0,0.1,0,0.1,0,0.1c0,0.1,0,0.1,0.1,0.1c0,0,0.1,0,0.1-0.1c0.1,0,0.1-0.1,0.2-0.2
			c0.1-0.1,0.1-0.1,0.2-0.2c0.1-0.1,0.1-0.1,0.1-0.2l0.1,0.1c-0.1,0.2-0.3,0.4-0.5,0.6c-0.2,0.2-0.4,0.2-0.6,0.2
			c-0.1,0-0.2,0-0.2-0.1c-0.1-0.1-0.1-0.1-0.1-0.2c0-0.1,0-0.2,0-0.2l0.5-2.1h-0.5l0.1-0.2h0.5l0.1-0.3l0.6-0.5l0.1,0l-0.2,0.7h0.7
			l-0.1,0.2H78.6z"/>
		<path class="st0" d="M81.4,8.5c0.1,0,0.2,0.1,0.3,0.2C81.9,8.8,82,8.9,82,9c0.1,0.1,0.1,0.3,0.1,0.5c0,0.2,0,0.4-0.1,0.6
			s-0.2,0.4-0.3,0.6c-0.1,0.2-0.3,0.4-0.5,0.5c-0.2,0.1-0.5,0.2-0.8,0.2c-0.4,0-0.6-0.1-0.8-0.3c-0.2-0.2-0.3-0.4-0.3-0.8
			c0-0.2,0-0.3,0.1-0.5c0.1-0.2,0.1-0.4,0.3-0.6C79.8,9,80,8.8,80.2,8.7c0.2-0.1,0.5-0.2,0.8-0.2C81.2,8.5,81.3,8.5,81.4,8.5z
			 M80.6,8.9c-0.1,0.1-0.3,0.3-0.4,0.5C80.1,9.6,80,9.8,80,10.1c-0.1,0.2-0.1,0.4-0.1,0.6c0,0.4,0.2,0.6,0.5,0.6
			c0.2,0,0.4-0.1,0.5-0.2c0.1-0.2,0.3-0.3,0.3-0.6s0.2-0.4,0.2-0.7c0-0.2,0.1-0.4,0.1-0.5c0-0.2,0-0.3-0.1-0.5
			c-0.1-0.1-0.2-0.2-0.4-0.2C80.9,8.7,80.7,8.7,80.6,8.9z"/>
		<path class="st0" d="M87.1,7.1L87.1,7.1l-0.9,3.8c0,0.1,0,0.2,0,0.2c0,0.1,0,0.1,0.1,0.1c0,0,0.1,0,0.1-0.1s0.1-0.1,0.1-0.2
			c0-0.1,0.1-0.1,0.1-0.2c0-0.1,0.1-0.1,0.1-0.2l0.1,0.1c-0.1,0.2-0.2,0.4-0.4,0.6c-0.2,0.2-0.3,0.2-0.5,0.2c-0.2,0-0.3-0.1-0.3-0.3
			c0-0.1,0-0.2,0-0.3l0.2-0.7h0c-0.1,0.2-0.2,0.3-0.3,0.5c-0.1,0.2-0.2,0.3-0.4,0.4c-0.1,0.1-0.3,0.2-0.4,0.3
			c-0.1,0.1-0.3,0.1-0.5,0.1c-0.1,0-0.2,0-0.3-0.1c-0.1,0-0.1-0.1-0.2-0.2c0-0.1-0.1-0.2-0.1-0.2c0-0.1,0-0.2,0-0.3
			c0-0.2,0-0.4,0.1-0.7c0.1-0.3,0.2-0.5,0.4-0.7c0.2-0.2,0.4-0.4,0.6-0.6c0.3-0.2,0.5-0.2,0.9-0.2c0.1,0,0.2,0,0.3,0
			c0.1,0,0.2,0,0.2,0.1l0,0l0.2-0.9c0-0.1,0-0.1,0-0.1c0-0.1,0-0.1-0.1-0.1l-0.4,0l0-0.1L87.1,7.1z M84.4,11.1
			c0.1,0.1,0.1,0.1,0.2,0.1c0.1,0,0.2,0,0.2-0.1c0.1,0,0.2-0.1,0.3-0.2c0.1-0.1,0.2-0.2,0.3-0.3c0.1-0.1,0.2-0.2,0.2-0.3
			c0.1-0.2,0.3-0.5,0.4-0.7C86,9.3,86.1,9,86.1,8.8c0,0-0.1-0.1-0.2-0.1c-0.1,0-0.2,0-0.2,0c-0.2,0-0.4,0.1-0.6,0.2
			C85,9,84.8,9.2,84.7,9.5c-0.1,0.2-0.2,0.5-0.3,0.7c-0.1,0.2-0.1,0.4-0.1,0.6C84.3,10.9,84.3,11,84.4,11.1z"/>
		<path class="st0" d="M89.4,10.6c-0.2,0.3-0.4,0.5-0.6,0.6c-0.2,0.1-0.5,0.2-0.7,0.2c-0.1,0-0.2,0-0.3,0s-0.2-0.1-0.3-0.1
			c-0.1-0.1-0.2-0.2-0.2-0.3c-0.1-0.1-0.1-0.3-0.1-0.5c0-0.2,0-0.5,0.1-0.7c0.1-0.2,0.2-0.5,0.4-0.6c0.2-0.2,0.4-0.4,0.6-0.5
			c0.2-0.1,0.5-0.2,0.7-0.2c0.2,0,0.4,0.1,0.5,0.2c0.1,0.1,0.2,0.3,0.2,0.4c0,0.1,0,0.2-0.1,0.3c0,0.1-0.1,0.2-0.2,0.3
			c-0.1,0.1-0.3,0.3-0.6,0.4c-0.3,0.1-0.6,0.2-1.1,0.3c0,0,0,0.1,0,0.1c0,0.3,0,0.5,0.1,0.6c0.1,0.1,0.2,0.2,0.4,0.2
			s0.4-0.1,0.5-0.2s0.3-0.3,0.5-0.5L89.4,10.6z M88.8,9.6C89,9.5,89.1,9.2,89.1,9c0-0.1,0-0.2-0.1-0.2c-0.1-0.1-0.1-0.1-0.2-0.1
			c-0.1,0-0.2,0-0.3,0.1c-0.1,0.1-0.2,0.2-0.3,0.3c-0.1,0.1-0.2,0.3-0.2,0.5c-0.1,0.2-0.1,0.3-0.1,0.5C88.3,10,88.6,9.8,88.8,9.6z"
			/>
		<path class="st0" d="M63.6,14.4l-0.2,1h-0.2v0c0-0.1,0-0.2,0-0.3c0-0.2,0-0.3-0.1-0.4c-0.1-0.1-0.3-0.1-0.5-0.1h-0.7
			c-0.1,0-0.1,0-0.1,0c0,0,0,0.1-0.1,0.1l-0.3,1.5h0.8c0.1,0,0.2,0,0.3,0c0.1,0,0.1,0,0.2-0.1c0,0,0.1-0.1,0.1-0.1
			c0-0.1,0.1-0.1,0.1-0.3h0.2l-0.3,1.2h-0.2c0,0,0-0.1,0-0.1c0,0,0-0.1,0-0.1c0-0.1,0-0.2-0.1-0.3c-0.1,0-0.2-0.1-0.4-0.1h-0.8
			L61,17.7c0,0.1,0,0.2,0,0.3c0,0.1,0,0.1,0.1,0.2c0,0,0.1,0,0.2,0.1c0.1,0,0.3,0,0.4,0c0.2,0,0.4,0,0.5,0c0.1,0,0.2-0.1,0.3-0.1
			c0.1-0.1,0.2-0.1,0.3-0.2c0.1-0.1,0.2-0.3,0.2-0.4h0.2l-0.3,1h-3.1l0-0.2l0.3,0c0.1,0,0.1,0,0.2-0.1c0,0,0.1-0.1,0.1-0.2l0.7-3.1
			c0-0.1,0-0.1,0-0.1c0-0.1,0-0.1-0.1-0.1l-0.4,0l0-0.2H63.6z"/>
		<path class="st0" d="M65.4,15.6c0.1,0.1,0.2,0.2,0.2,0.3c0,0.1,0,0.1-0.1,0.2c-0.1,0-0.1,0.1-0.2,0.1c-0.1,0-0.1,0-0.2-0.1
			c-0.1-0.3-0.3-0.4-0.5-0.4c-0.1,0-0.2,0-0.3,0.1c-0.1,0.1-0.1,0.2-0.1,0.3c0,0.1,0,0.2,0.1,0.3c0.1,0.1,0.2,0.2,0.3,0.4
			c0.2,0.2,0.3,0.3,0.4,0.4c0.1,0.1,0.1,0.3,0.1,0.4c0,0.2-0.1,0.5-0.3,0.6c-0.2,0.2-0.4,0.3-0.7,0.3c-0.3,0-0.5-0.1-0.6-0.2
			c-0.2-0.1-0.2-0.2-0.2-0.4c0-0.1,0-0.2,0.1-0.2c0.1-0.1,0.1-0.1,0.2-0.1c0.1,0,0.2,0.1,0.2,0.2c0,0.2,0.1,0.3,0.2,0.4
			c0.1,0.1,0.2,0.1,0.3,0.1c0.1,0,0.2,0,0.3-0.1c0.1-0.1,0.1-0.2,0.1-0.3c0-0.1,0-0.2-0.1-0.4c-0.1-0.1-0.2-0.2-0.3-0.3
			c-0.2-0.1-0.3-0.3-0.4-0.4C64,16.6,64,16.5,64,16.3c0-0.2,0.1-0.5,0.3-0.6c0.2-0.2,0.4-0.2,0.7-0.2C65.1,15.5,65.3,15.5,65.4,15.6
			z"/>
		<path class="st0" d="M67.2,15.8l-0.5,2.1c0,0.1,0,0.1,0,0.1c0,0.1,0,0.1,0.1,0.1c0,0,0.1,0,0.1-0.1c0.1,0,0.1-0.1,0.2-0.2
			c0.1-0.1,0.1-0.1,0.2-0.2c0.1-0.1,0.1-0.1,0.1-0.2l0.1,0.1c-0.1,0.2-0.3,0.4-0.5,0.6c-0.2,0.2-0.4,0.2-0.6,0.2
			c-0.1,0-0.2,0-0.2-0.1c-0.1-0.1-0.1-0.1-0.1-0.2c0-0.1,0-0.2,0-0.2l0.5-2.1h-0.5l0.1-0.2h0.5l0.1-0.3l0.6-0.5l0.1,0l-0.2,0.7H68
			l-0.1,0.2H67.2z"/>
		<path class="st0" d="M71,15.5l-0.6,2.4c0,0.1,0,0.1,0,0.2c0,0.1,0,0.1,0.1,0.1c0,0,0.1,0,0.1-0.1c0,0,0.1-0.1,0.1-0.2
			c0-0.1,0.1-0.1,0.1-0.2c0-0.1,0.1-0.1,0.1-0.2l0.1,0.1c-0.1,0.2-0.3,0.4-0.4,0.6c-0.2,0.2-0.4,0.2-0.6,0.2c-0.2,0-0.3-0.1-0.3-0.3
			c0-0.1,0-0.2,0-0.3l0.2-0.7h0c-0.1,0.2-0.2,0.3-0.3,0.5c-0.1,0.2-0.2,0.3-0.4,0.4c-0.1,0.1-0.3,0.2-0.4,0.3
			c-0.1,0.1-0.3,0.1-0.4,0.1c-0.2,0-0.3,0-0.3-0.1c-0.1-0.1-0.1-0.2-0.1-0.3c0-0.1,0-0.2,0.1-0.4l0.4-1.5c0-0.1,0-0.1,0-0.2
			c0-0.1,0-0.1-0.1-0.1l-0.4,0l0-0.1l1.1-0.2l0,0l-0.6,2.2c0,0.1,0,0.2,0,0.3c0,0.2,0.1,0.2,0.2,0.2c0.1,0,0.2,0,0.4-0.1
			c0.1-0.1,0.2-0.2,0.3-0.3c0.1-0.1,0.2-0.3,0.3-0.4c0.1-0.2,0.2-0.3,0.2-0.5c0.1-0.2,0.1-0.3,0.2-0.5c0.1-0.2,0.1-0.4,0.2-0.8
			L71,15.5z"/>
		<path class="st0" d="M74.7,14.1L74.7,14.1l-0.9,3.8c0,0.1,0,0.2,0,0.2c0,0.1,0,0.1,0.1,0.1c0,0,0.1,0,0.1-0.1c0,0,0.1-0.1,0.1-0.2
			c0-0.1,0.1-0.1,0.1-0.2c0-0.1,0.1-0.1,0.1-0.2l0.1,0.1c-0.1,0.2-0.2,0.4-0.4,0.6c-0.2,0.2-0.3,0.2-0.5,0.2c-0.2,0-0.3-0.1-0.3-0.3
			c0-0.1,0-0.2,0-0.3l0.2-0.7h0c-0.1,0.2-0.2,0.3-0.3,0.5c-0.1,0.2-0.2,0.3-0.4,0.4c-0.1,0.1-0.3,0.2-0.4,0.3
			c-0.1,0.1-0.3,0.1-0.5,0.1c-0.1,0-0.2,0-0.3-0.1c-0.1,0-0.1-0.1-0.2-0.2c0-0.1-0.1-0.2-0.1-0.2c0-0.1,0-0.2,0-0.3
			c0-0.2,0-0.4,0.1-0.7c0.1-0.3,0.2-0.5,0.4-0.7c0.2-0.2,0.4-0.4,0.6-0.6c0.3-0.2,0.5-0.2,0.9-0.2c0.1,0,0.2,0,0.3,0
			c0.1,0,0.2,0,0.2,0.1l0,0l0.2-0.9c0-0.1,0-0.1,0-0.1c0-0.1,0-0.1-0.1-0.1l-0.4,0l0-0.1L74.7,14.1z M72.1,18.1
			c0.1,0.1,0.1,0.1,0.2,0.1c0.1,0,0.2,0,0.2-0.1c0.1,0,0.2-0.1,0.3-0.2c0.1-0.1,0.2-0.2,0.3-0.3c0.1-0.1,0.2-0.2,0.2-0.3
			c0.1-0.2,0.3-0.5,0.4-0.7c0.1-0.3,0.2-0.5,0.2-0.7c0,0-0.1-0.1-0.2-0.1c-0.1,0-0.2,0-0.2,0c-0.2,0-0.4,0.1-0.6,0.2
			c-0.2,0.1-0.3,0.3-0.5,0.6c-0.1,0.2-0.2,0.5-0.3,0.7C72,17.4,72,17.6,72,17.8C72,17.9,72,18,72.1,18.1z"/>
		<path class="st0" d="M76.3,15.5L76.3,15.5l-0.6,2.4c0,0.1,0,0.1,0,0.2c0,0.1,0,0.1,0.1,0.1c0,0,0.1,0,0.1-0.1c0,0,0.1-0.1,0.1-0.2
			c0-0.1,0.1-0.1,0.1-0.2c0-0.1,0.1-0.1,0.1-0.2l0.1,0.1c-0.1,0.2-0.2,0.4-0.4,0.6c-0.2,0.2-0.3,0.2-0.5,0.2c-0.1,0-0.2,0-0.3-0.1
			c-0.1-0.1-0.1-0.1-0.1-0.2c0-0.1,0-0.1,0-0.2l0.5-1.8c0-0.1,0-0.1,0-0.2c0-0.1-0.1-0.1-0.2-0.1l-0.3,0l0-0.1L76.3,15.5z
			 M76.5,14.3c0.1,0.1,0.1,0.1,0.1,0.2c0,0.1,0,0.2-0.1,0.3c-0.1,0.1-0.2,0.1-0.3,0.1c-0.1,0-0.2,0-0.2-0.1s-0.1-0.1-0.1-0.2
			c0-0.1,0-0.2,0.1-0.3c0.1-0.1,0.2-0.1,0.3-0.1C76.3,14.2,76.4,14.3,76.5,14.3z"/>
		<path class="st0" d="M78.9,15.5c0.1,0,0.2,0.1,0.3,0.2c0.1,0.1,0.2,0.2,0.2,0.3s0.1,0.3,0.1,0.5c0,0.2,0,0.4-0.1,0.6
			c-0.1,0.2-0.2,0.4-0.3,0.6c-0.1,0.2-0.3,0.4-0.5,0.5c-0.2,0.1-0.5,0.2-0.8,0.2c-0.4,0-0.6-0.1-0.8-0.3c-0.2-0.2-0.3-0.4-0.3-0.8
			c0-0.2,0-0.3,0.1-0.5c0.1-0.2,0.1-0.4,0.3-0.6c0.1-0.2,0.3-0.4,0.5-0.5c0.2-0.1,0.5-0.2,0.8-0.2C78.6,15.5,78.7,15.5,78.9,15.5z
			 M78,15.9c-0.1,0.1-0.3,0.3-0.4,0.5c-0.1,0.2-0.2,0.4-0.2,0.7c-0.1,0.2-0.1,0.4-0.1,0.6c0,0.4,0.2,0.6,0.5,0.6
			c0.2,0,0.4-0.1,0.5-0.2c0.1-0.2,0.3-0.3,0.3-0.6s0.2-0.4,0.2-0.7c0-0.2,0.1-0.4,0.1-0.5c0-0.2,0-0.3-0.1-0.5
			c-0.1-0.1-0.2-0.2-0.4-0.2C78.3,15.7,78.1,15.8,78,15.9z"/>
		<path class="st0" d="M81.8,15.6c0.1,0.1,0.2,0.2,0.2,0.3c0,0.1,0,0.1-0.1,0.2c-0.1,0-0.1,0.1-0.2,0.1c-0.1,0-0.1,0-0.2-0.1
			c-0.1-0.3-0.3-0.4-0.5-0.4c-0.1,0-0.2,0-0.3,0.1c-0.1,0.1-0.1,0.2-0.1,0.3c0,0.1,0,0.2,0.1,0.3c0.1,0.1,0.2,0.2,0.3,0.4
			c0.2,0.2,0.3,0.3,0.4,0.4c0.1,0.1,0.1,0.3,0.1,0.4c0,0.2-0.1,0.5-0.3,0.6c-0.2,0.2-0.4,0.3-0.7,0.3c-0.3,0-0.5-0.1-0.6-0.2
			c-0.2-0.1-0.2-0.2-0.2-0.4c0-0.1,0-0.2,0.1-0.2c0.1-0.1,0.1-0.1,0.2-0.1c0.1,0,0.2,0.1,0.2,0.2c0,0.2,0.1,0.3,0.2,0.4
			c0.1,0.1,0.2,0.1,0.3,0.1c0.1,0,0.2,0,0.3-0.1c0.1-0.1,0.1-0.2,0.1-0.3c0-0.1,0-0.2-0.1-0.4c-0.1-0.1-0.2-0.2-0.3-0.3
			c-0.2-0.1-0.3-0.3-0.4-0.4c-0.1-0.1-0.1-0.3-0.1-0.4c0-0.2,0.1-0.5,0.3-0.6c0.2-0.2,0.4-0.2,0.7-0.2
			C81.4,15.5,81.6,15.5,81.8,15.6z"/>
		<path class="st0" d="M86.8,16.2l0.3-1.3c0-0.1,0-0.1,0-0.1c0-0.1,0-0.2-0.1-0.2l-0.3,0l0-0.2h1.6l0,0.2l-0.3,0
			c-0.1,0-0.1,0-0.2,0.1c0,0-0.1,0.1-0.1,0.2l-0.7,3.1c0,0.1,0,0.1,0,0.1c0,0.1,0,0.2,0.1,0.2l0.3,0l0,0.2h-1.6l0-0.2l0.3,0
			c0.1,0,0.1,0,0.2-0.1c0,0,0.1-0.1,0.1-0.2l0.3-1.5h-2l-0.3,1.5c0,0.1,0,0.1,0,0.1c0,0.1,0,0.2,0.1,0.2l0.3,0l0,0.2h-1.6l0-0.2
			l0.3,0c0.1,0,0.1,0,0.2-0.1c0,0,0.1-0.1,0.1-0.2l0.7-3.1c0-0.1,0-0.1,0-0.1c0-0.1,0-0.2-0.1-0.2l-0.3,0l0-0.2h1.6l0,0.2l-0.3,0
			c-0.1,0-0.1,0-0.2,0.1c0,0-0.1,0.1-0.1,0.2l-0.3,1.3H86.8z"/>
		<path class="st0" d="M89.3,15.5L89.3,15.5l-0.6,2.4c0,0.1,0,0.1,0,0.2c0,0.1,0,0.1,0.1,0.1c0,0,0.1,0,0.1-0.1c0,0,0.1-0.1,0.1-0.2
			c0-0.1,0.1-0.1,0.1-0.2c0-0.1,0.1-0.1,0.1-0.2l0.1,0.1c-0.1,0.2-0.2,0.4-0.4,0.6c-0.2,0.2-0.3,0.2-0.5,0.2c-0.1,0-0.2,0-0.3-0.1
			c-0.1-0.1-0.1-0.1-0.1-0.2c0-0.1,0-0.1,0-0.2l0.5-1.8c0-0.1,0-0.1,0-0.2c0-0.1-0.1-0.1-0.2-0.1l-0.3,0l0-0.1L89.3,15.5z
			 M89.5,14.3c0.1,0.1,0.1,0.1,0.1,0.2c0,0.1,0,0.2-0.1,0.3c-0.1,0.1-0.2,0.1-0.3,0.1c-0.1,0-0.2,0-0.2-0.1s-0.1-0.1-0.1-0.2
			c0-0.1,0-0.2,0.1-0.3c0.1-0.1,0.2-0.1,0.3-0.1C89.4,14.2,89.4,14.3,89.5,14.3z"/>
		<path class="st0" d="M91.7,15.6c0.1,0.1,0.2,0.2,0.2,0.3c0,0.1,0,0.1-0.1,0.2c-0.1,0-0.1,0.1-0.2,0.1c-0.1,0-0.1,0-0.2-0.1
			c-0.1-0.3-0.3-0.4-0.5-0.4c-0.1,0-0.2,0-0.3,0.1c-0.1,0.1-0.1,0.2-0.1,0.3c0,0.1,0,0.2,0.1,0.3c0.1,0.1,0.2,0.2,0.3,0.4
			c0.2,0.2,0.3,0.3,0.4,0.4c0.1,0.1,0.1,0.3,0.1,0.4c0,0.2-0.1,0.5-0.3,0.6c-0.2,0.2-0.4,0.3-0.7,0.3c-0.3,0-0.5-0.1-0.6-0.2
			c-0.2-0.1-0.2-0.2-0.2-0.4c0-0.1,0-0.2,0.1-0.2c0.1-0.1,0.1-0.1,0.2-0.1c0.1,0,0.2,0.1,0.2,0.2c0,0.2,0.1,0.3,0.2,0.4
			c0.1,0.1,0.2,0.1,0.3,0.1c0.1,0,0.2,0,0.3-0.1c0.1-0.1,0.1-0.2,0.1-0.3c0-0.1,0-0.2-0.1-0.4c-0.1-0.1-0.2-0.2-0.3-0.3
			c-0.2-0.1-0.3-0.3-0.4-0.4c-0.1-0.1-0.1-0.3-0.1-0.4c0-0.2,0.1-0.5,0.3-0.6c0.2-0.2,0.4-0.2,0.7-0.2
			C91.3,15.5,91.5,15.5,91.7,15.6z"/>
		<path class="st0" d="M93.4,15.8l-0.5,2.1c0,0.1,0,0.1,0,0.1c0,0.1,0,0.1,0.1,0.1c0,0,0.1,0,0.1-0.1c0.1,0,0.1-0.1,0.2-0.2
			c0.1-0.1,0.1-0.1,0.2-0.2c0.1-0.1,0.1-0.1,0.1-0.2l0.1,0.1c-0.1,0.2-0.3,0.4-0.5,0.6c-0.2,0.2-0.4,0.2-0.6,0.2
			c-0.1,0-0.2,0-0.2-0.1c-0.1-0.1-0.1-0.1-0.1-0.2c0-0.1,0-0.2,0-0.2l0.5-2.1h-0.5l0.1-0.2h0.5l0.1-0.3l0.6-0.5l0.1,0l-0.2,0.7h0.7
			l-0.1,0.2H93.4z"/>
		<path class="st0" d="M96.2,15.5c0.1,0,0.2,0.1,0.3,0.2c0.1,0.1,0.2,0.2,0.2,0.3s0.1,0.3,0.1,0.5c0,0.2,0,0.4-0.1,0.6
			c-0.1,0.2-0.2,0.4-0.3,0.6c-0.1,0.2-0.3,0.4-0.5,0.5c-0.2,0.1-0.5,0.2-0.8,0.2c-0.4,0-0.6-0.1-0.8-0.3c-0.2-0.2-0.3-0.4-0.3-0.8
			c0-0.2,0-0.3,0.1-0.5c0.1-0.2,0.1-0.4,0.3-0.6c0.1-0.2,0.3-0.4,0.5-0.5c0.2-0.1,0.5-0.2,0.8-0.2C95.9,15.5,96.1,15.5,96.2,15.5z
			 M95.3,15.9c-0.1,0.1-0.3,0.3-0.4,0.5c-0.1,0.2-0.2,0.4-0.2,0.7c-0.1,0.2-0.1,0.4-0.1,0.6c0,0.4,0.2,0.6,0.5,0.6
			c0.2,0,0.4-0.1,0.5-0.2c0.1-0.2,0.3-0.3,0.3-0.6c0.1-0.2,0.2-0.4,0.2-0.7c0-0.2,0.1-0.4,0.1-0.5c0-0.2,0-0.3-0.1-0.5
			c-0.1-0.1-0.2-0.2-0.4-0.2C95.6,15.7,95.5,15.8,95.3,15.9z M95.6,15.1l0.7-0.7c0.1-0.1,0.2-0.2,0.2-0.2c0.1,0,0.1-0.1,0.2-0.1
			c0,0,0.1,0,0.1,0.1c0.1,0.1,0.1,0.1,0.1,0.2c0,0.1,0,0.1-0.1,0.2c-0.1,0.1-0.1,0.1-0.2,0.2l-0.9,0.5L95.6,15.1z"/>
		<path class="st0" d="M97.3,18.5l0.5-2.4c0-0.1,0-0.1,0-0.2c0-0.1,0-0.1-0.1-0.1l-0.4,0l0-0.1l1-0.2l0,0l-0.3,1h0
			c0.2-0.3,0.3-0.6,0.5-0.7c0.2-0.2,0.4-0.3,0.5-0.3c0.2,0,0.3,0.1,0.3,0.3c0,0.1,0,0.2-0.1,0.2c-0.1,0.1-0.1,0.1-0.2,0.1
			c0,0-0.1,0-0.1,0c0,0-0.1,0-0.1-0.1C99,16,98.9,16,98.9,16c-0.1,0-0.2,0.1-0.4,0.3c-0.1,0.2-0.3,0.5-0.4,0.9
			c0,0.1-0.1,0.3-0.2,0.7c-0.1,0.2-0.1,0.4-0.1,0.5L97.3,18.5z"/>
		<path class="st0" d="M100.9,15.5L100.9,15.5l-0.6,2.4c0,0.1,0,0.1,0,0.2c0,0.1,0,0.1,0.1,0.1c0,0,0.1,0,0.1-0.1
			c0,0,0.1-0.1,0.1-0.2c0-0.1,0.1-0.1,0.1-0.2c0-0.1,0.1-0.1,0.1-0.2l0.1,0.1c-0.1,0.2-0.2,0.4-0.4,0.6c-0.2,0.2-0.3,0.2-0.5,0.2
			c-0.1,0-0.2,0-0.3-0.1c-0.1-0.1-0.1-0.1-0.1-0.2c0-0.1,0-0.1,0-0.2l0.5-1.8c0-0.1,0-0.1,0-0.2c0-0.1-0.1-0.1-0.2-0.1l-0.3,0l0-0.1
			L100.9,15.5z M101.1,14.3c0.1,0.1,0.1,0.1,0.1,0.2c0,0.1,0,0.2-0.1,0.3c-0.1,0.1-0.2,0.1-0.3,0.1c-0.1,0-0.2,0-0.2-0.1
			s-0.1-0.1-0.1-0.2c0-0.1,0-0.2,0.1-0.3c0.1-0.1,0.2-0.1,0.3-0.1C101,14.2,101.1,14.3,101.1,14.3z"/>
		<path class="st0" d="M103.6,17.6c-0.2,0.3-0.4,0.5-0.6,0.7c-0.2,0.1-0.5,0.2-0.7,0.2c-0.1,0-0.2,0-0.3,0c-0.1,0-0.2-0.1-0.3-0.2
			c-0.1-0.1-0.1-0.2-0.2-0.3c0-0.1-0.1-0.3-0.1-0.4c0-0.2,0-0.5,0.1-0.7c0.1-0.2,0.2-0.5,0.3-0.7c0.2-0.2,0.3-0.4,0.5-0.5
			c0.2-0.1,0.4-0.2,0.7-0.2c0.2,0,0.4,0.1,0.5,0.1c0.1,0.1,0.2,0.2,0.2,0.4c0,0.1,0,0.2-0.1,0.2c-0.1,0.1-0.2,0.1-0.2,0.1
			c-0.1,0-0.2-0.1-0.2-0.2c0-0.2-0.1-0.3-0.1-0.4c-0.1-0.1-0.1-0.1-0.2-0.1c-0.1,0-0.3,0.1-0.4,0.2c-0.1,0.1-0.2,0.2-0.3,0.4
			c-0.1,0.2-0.2,0.4-0.2,0.6c-0.1,0.2-0.1,0.4-0.1,0.6c0,0.2,0,0.4,0.1,0.6c0.1,0.1,0.2,0.2,0.4,0.2c0.1,0,0.2,0,0.3-0.1
			s0.2-0.1,0.3-0.2c0.1-0.1,0.2-0.1,0.2-0.2c0.1-0.1,0.1-0.2,0.2-0.2L103.6,17.6z"/>
		<path class="st0" d="M106.1,15.5c0.1,0,0.2,0.1,0.3,0.2c0.1,0.1,0.2,0.2,0.2,0.3s0.1,0.3,0.1,0.5c0,0.2,0,0.4-0.1,0.6
			c-0.1,0.2-0.2,0.4-0.3,0.6c-0.1,0.2-0.3,0.4-0.5,0.5c-0.2,0.1-0.5,0.2-0.8,0.2c-0.4,0-0.6-0.1-0.8-0.3c-0.2-0.2-0.3-0.4-0.3-0.8
			c0-0.2,0-0.3,0.1-0.5c0.1-0.2,0.1-0.4,0.3-0.6c0.1-0.2,0.3-0.4,0.5-0.5c0.2-0.1,0.5-0.2,0.8-0.2C105.8,15.5,106,15.5,106.1,15.5z
			 M105.2,15.9c-0.1,0.1-0.3,0.3-0.4,0.5c-0.1,0.2-0.2,0.4-0.2,0.7c-0.1,0.2-0.1,0.4-0.1,0.6c0,0.4,0.2,0.6,0.5,0.6
			c0.2,0,0.4-0.1,0.5-0.2c0.1-0.2,0.3-0.3,0.3-0.6c0.1-0.2,0.2-0.4,0.2-0.7c0-0.2,0.1-0.4,0.1-0.5c0-0.2,0-0.3-0.1-0.5
			c-0.1-0.1-0.2-0.2-0.4-0.2C105.5,15.7,105.4,15.8,105.2,15.9z"/>
		<path class="st0" d="M109,15.6c0.1,0.1,0.2,0.2,0.2,0.3c0,0.1,0,0.1-0.1,0.2c-0.1,0-0.1,0.1-0.2,0.1c-0.1,0-0.1,0-0.2-0.1
			c-0.1-0.3-0.3-0.4-0.5-0.4c-0.1,0-0.2,0-0.3,0.1c-0.1,0.1-0.1,0.2-0.1,0.3c0,0.1,0,0.2,0.1,0.3c0.1,0.1,0.2,0.2,0.3,0.4
			c0.2,0.2,0.3,0.3,0.4,0.4c0.1,0.1,0.1,0.3,0.1,0.4c0,0.2-0.1,0.5-0.3,0.6c-0.2,0.2-0.4,0.3-0.7,0.3c-0.3,0-0.5-0.1-0.6-0.2
			c-0.2-0.1-0.2-0.2-0.2-0.4c0-0.1,0-0.2,0.1-0.2c0.1-0.1,0.1-0.1,0.2-0.1c0.1,0,0.2,0.1,0.2,0.2c0,0.2,0.1,0.3,0.2,0.4
			c0.1,0.1,0.2,0.1,0.3,0.1c0.1,0,0.2,0,0.3-0.1c0.1-0.1,0.1-0.2,0.1-0.3c0-0.1,0-0.2-0.1-0.4c-0.1-0.1-0.2-0.2-0.3-0.3
			c-0.2-0.1-0.3-0.3-0.4-0.4c-0.1-0.1-0.1-0.3-0.1-0.4c0-0.2,0.1-0.5,0.3-0.6c0.2-0.2,0.4-0.2,0.7-0.2
			C108.7,15.5,108.9,15.5,109,15.6z"/>
	</g>
	<line class="st5" x1="55.3" y1="7.6" x2="55.3" y2="18.7"/>
</g>
</svg>
